<svg width="151" height="46" viewBox="0 0 151 46" fill="none" xmlns="http://www.w3.org/2000/svg">
<path d="M20.1622 16.6426C19.3477 15.7667 10.7637 7.42136 10.7637 7.42136C10.7637 7.42136 5.43762 12.46 2.23898 15.6142C-0.95965 18.7683 -0.125439 22.7589 1.0395 23.9841C2.0366 25.0371 8.43881 31.1091 10.2257 32.8067V21.8978C9.10519 21.6419 8.25123 20.6824 8.25123 19.4867C8.25123 18.0941 9.38161 16.9624 10.7835 16.9624C12.1854 16.9624 13.3108 18.0892 13.3108 19.4867C13.3108 20.6824 12.4568 21.6419 11.3363 21.8978V32.6739C13.1726 30.9861 18.479 26.1147 19.175 25.5046C22.2601 22.7884 22.0824 18.7043 20.1622 16.6426Z" fill="#7AC143"/>
<path d="M23.9927 40.5173C24.664 39.981 31.0218 34.3371 31.0218 34.3371C31.0218 34.3371 27.1814 30.8336 24.7775 28.7325C22.3687 26.6314 19.328 27.1776 18.3951 27.9452C17.5954 28.5997 12.9603 32.8117 11.6671 33.9877H19.9845C20.182 33.2496 20.9125 32.6887 21.8208 32.6887C22.882 32.6887 23.7459 33.4317 23.7459 34.3518C23.7459 35.272 22.882 36.015 21.8208 36.015C20.9076 36.015 20.177 35.454 19.9845 34.716H11.7707C13.0591 35.9264 16.776 39.4151 17.24 39.8727C19.3082 41.8951 22.423 41.777 23.9927 40.5173Z" fill="#7AC143"/>
<path d="M30.4097 36.9843C37.572 35.8772 43.0364 29.9872 43.0364 22.8819C43.0364 14.9893 36.2886 8.59248 27.9663 8.59248C23.9927 8.59248 20.3794 10.049 17.6892 12.4305L14.1006 8.82867C14.609 8.37597 15.1421 7.94788 15.695 7.54931C15.1816 5.02505 14.5004 2.983 15.9122 2.20062C16.9093 1.64952 19.0664 0.675238 20.7299 0.0503221C21.9195 -0.397452 24.042 2.24983 25.4143 3.75553C26.2781 3.6522 27.1567 3.57347 28.0502 3.57347C29.1263 3.57347 30.1727 3.6768 31.1995 3.82934C32.7543 1.6692 33.9193 -0.279358 35.4989 0.217622C36.5848 0.557144 38.9048 1.3592 40.435 2.25967C41.5555 2.91903 41.0372 5.71885 40.6868 7.75598C42.0294 8.7647 43.219 9.94072 44.2605 11.2348C47.0594 10.8018 49.4287 10.1179 50.2333 11.6482C50.7615 12.6569 51.8326 14.8564 52.2769 16.5688C52.6175 17.8826 50.026 19.59 48.3279 20.7956C48.4069 21.4943 48.4563 22.2078 48.4563 22.9262C48.4563 23.7135 48.3921 24.4811 48.2983 25.2438C50.4653 26.9906 52.499 28.2798 51.9017 29.879C51.5019 30.9418 50.5788 33.2102 49.5965 34.6864C48.8956 35.7394 46.235 35.1391 44.2309 34.6864C43.0216 36.1823 41.5703 37.4813 39.9611 38.5884C40.3264 40.97 40.6769 42.9137 39.3046 43.5976C38.2829 44.1044 36.0566 45.1378 34.3339 45.5462C33.1542 45.8266 31.7029 43.7895 30.5676 42.1264C29.7433 42.2248 28.9041 42.2789 28.0551 42.2789C26.8902 42.2789 25.7499 42.1854 24.6393 42.0083L30.4097 36.9843Z" fill="#EF4135"/>
<path d="M142.702 9.50279C142.885 9.7685 142.979 10.231 142.979 10.8806V15.6339C142.979 15.9242 143.048 16.1948 143.181 16.4507C143.487 16.4507 143.744 16.4458 143.946 16.431C144.149 16.4162 144.317 16.4015 144.445 16.3867C144.573 16.367 144.677 16.3424 144.761 16.3031C144.84 16.2686 144.909 16.2194 144.973 16.1604C144.963 15.811 144.953 15.4173 144.943 14.9794C144.934 14.5415 144.934 14.0789 144.934 13.582V10.8412C144.934 10.3196 144.899 9.86199 144.83 9.46342C144.761 9.06486 144.628 8.73026 144.425 8.4547C144.223 8.18407 143.941 7.97248 143.586 7.82979C143.231 7.68217 142.762 7.61328 142.184 7.61328C141.962 7.61328 141.755 7.63296 141.567 7.66741C141.375 7.70185 141.182 7.75106 140.985 7.8101C140.812 7.86915 140.634 7.94296 140.452 8.02661C140.269 8.11026 140.081 8.21851 139.899 8.35137C139.839 8.24312 139.756 8.14962 139.652 8.08074C139.548 8.00693 139.41 7.97248 139.237 7.97248H139.134C139.089 7.97248 139.04 7.98232 138.976 8.00693C138.596 8.16439 138.334 8.31693 138.201 8.45962C138.26 8.64169 138.309 8.83851 138.349 9.05994C138.388 9.27644 138.403 9.53231 138.403 9.82263V12.8734C138.403 13.5623 138.398 14.2118 138.393 14.817C138.388 15.4223 138.378 15.9685 138.364 16.4507H138.842C139.04 16.4507 139.203 16.4458 139.341 16.4408C139.474 16.4359 139.588 16.4212 139.682 16.4064C139.775 16.3867 139.854 16.367 139.923 16.3424C139.992 16.3178 140.057 16.2785 140.116 16.2145C140.215 16.0816 140.274 15.9537 140.299 15.8356C140.323 15.7126 140.333 15.5502 140.333 15.3435V9.75866L140.279 9.81279C140.461 9.60612 140.674 9.43882 140.916 9.30597C141.157 9.17311 141.424 9.10914 141.72 9.10914C142.189 9.10422 142.515 9.23708 142.702 9.50279ZM134.039 14.6202C134.035 14.6694 134.03 14.6891 134.03 14.6743L134.049 14.6547C133.941 14.7974 133.763 14.9253 133.521 15.0286C133.279 15.132 133.037 15.1812 132.791 15.1812H132.677C132.445 15.1566 132.253 15.0581 132.104 14.8908C131.956 14.7235 131.882 14.4234 131.882 14.0002C131.882 13.7345 131.922 13.5082 132.001 13.331C132.08 13.149 132.188 12.9964 132.322 12.8783C132.455 12.7602 132.613 12.6618 132.791 12.5978C132.968 12.5339 133.156 12.4798 133.353 12.4453H133.334C133.432 12.4355 133.526 12.4256 133.62 12.4207C133.714 12.4158 133.807 12.4109 133.906 12.4109H134.089V13.6115V14.0937C134.089 14.2315 134.079 14.3594 134.054 14.4677C134.054 14.5218 134.044 14.5759 134.039 14.6202ZM130.525 8.96152C130.55 9.05994 130.584 9.17803 130.629 9.32565C130.673 9.46835 130.762 9.61104 130.895 9.7439C131.028 9.7439 131.152 9.73406 131.265 9.70945C131.379 9.68485 131.483 9.65041 131.581 9.6012C131.853 9.50279 132.154 9.40438 132.485 9.30104C132.815 9.19771 133.131 9.14851 133.427 9.14851C133.733 9.14851 133.926 9.24692 134 9.43882C134.074 9.63072 134.109 9.92104 134.109 10.3098V11.2004C134.049 11.1856 133.985 11.1807 133.926 11.1807H133.704H133.437C133.343 11.1807 133.255 11.1856 133.171 11.2004C132.875 11.2348 132.544 11.3037 132.174 11.4071C131.803 11.5104 131.453 11.6728 131.122 11.8991C130.791 12.1255 130.51 12.4207 130.283 12.7897C130.056 13.1588 129.942 13.6164 129.942 14.1577C129.942 14.5808 130.012 14.9499 130.145 15.255C130.278 15.56 130.466 15.8159 130.698 16.0177C130.93 16.2194 131.191 16.367 131.483 16.4605C131.774 16.5589 132.075 16.6081 132.396 16.6081C132.652 16.6081 132.899 16.5934 133.136 16.5638C133.368 16.5343 133.595 16.4654 133.817 16.3572C133.877 16.3227 133.951 16.2735 134.03 16.2194C134.109 16.1653 134.173 16.121 134.222 16.0816C134.346 16.2145 134.508 16.3375 134.711 16.4458C134.913 16.554 135.12 16.6081 135.328 16.6081C135.609 16.5934 135.851 16.5392 136.048 16.4359C136.246 16.3326 136.384 16.2194 136.473 16.1013C136.473 16.0423 136.478 15.9291 136.483 15.7667C136.488 15.6043 136.498 15.4567 136.512 15.3239C136.364 15.3485 136.256 15.3288 136.182 15.2599C136.108 15.191 136.058 15.1123 136.034 15.0139C135.994 14.9056 135.984 14.7728 135.994 14.6153V14.2905C135.994 14.1577 135.999 14.0199 136.004 13.8723C136.009 13.7296 136.014 13.582 136.014 13.4393V13.0555C136.024 12.7159 136.034 12.3764 136.034 12.032V11.0085V10.2114C136.034 9.41422 135.891 8.79422 135.609 8.36121C135.328 7.9282 134.814 7.68217 134.079 7.63788C133.931 7.62804 133.822 7.6182 133.758 7.6182H133.437C133.116 7.62804 132.805 7.66741 132.504 7.72645C132.203 7.7855 131.927 7.86423 131.675 7.9528C131.423 8.04629 131.201 8.13978 131.009 8.24312C130.816 8.34645 130.673 8.43994 130.574 8.52359C130.535 8.622 130.52 8.70073 130.52 8.75978V8.85819C130.52 8.88771 130.53 8.932 130.555 8.99597L130.525 8.96152ZM126.364 5.67456C126.517 5.85663 126.783 5.9452 127.168 5.9452C127.613 5.9452 127.904 5.83694 128.057 5.62536C128.205 5.41377 128.284 5.1333 128.294 4.77901C128.304 4.42965 128.249 4.16394 128.121 3.99172C127.993 3.81458 127.711 3.73093 127.282 3.73093C126.517 3.73093 126.137 4.09505 126.137 4.81838C126.132 5.20711 126.206 5.4925 126.364 5.67456ZM127.864 7.78058C127.445 7.78058 127.089 7.80518 126.793 7.86423C126.497 7.91836 126.295 8.06105 126.186 8.29232C126.196 8.53343 126.206 8.79914 126.216 9.08946C126.221 9.37977 126.226 9.72914 126.226 10.1425V13.3015C126.226 13.5918 126.221 13.8772 126.216 14.1528C126.211 14.4332 126.206 14.7039 126.206 14.9696V16.4556C126.527 16.4458 126.788 16.4359 126.991 16.431C127.193 16.4261 127.361 16.4162 127.489 16.4015C127.618 16.3916 127.716 16.367 127.775 16.3375C127.835 16.308 127.884 16.2686 127.924 16.2194C128.096 15.9537 128.18 15.6191 128.18 15.2205V9.13866C128.18 8.74994 128.17 8.47438 128.151 8.30216C128.131 8.12994 128.086 7.9774 128.012 7.82979L127.864 7.78058ZM123.456 9.28628C123.496 9.28628 123.54 9.29612 123.604 9.32073C123.678 9.33057 123.762 9.34041 123.856 9.35025C123.95 9.35517 124.044 9.36009 124.142 9.36009H124.31C124.335 9.36009 124.379 9.35025 124.439 9.32565C124.572 9.14359 124.661 8.94184 124.705 8.71549C124.75 8.48915 124.769 8.312 124.769 8.17915C124.71 7.90359 124.399 7.73137 123.846 7.67233C123.674 7.64772 123.491 7.65264 123.303 7.68217C123.111 7.71169 122.938 7.75598 122.775 7.81994C122.602 7.87899 122.42 7.9528 122.232 8.03645C122.04 8.1201 121.862 8.22343 121.689 8.34645C121.63 8.21359 121.551 8.1201 121.457 8.06597C121.363 8.01185 121.22 7.98232 121.023 7.98232H120.914C120.875 7.98232 120.825 7.99217 120.766 8.01677C120.559 8.10042 120.391 8.17915 120.268 8.25296C120.144 8.32677 120.045 8.39565 119.971 8.46946C120.031 8.65153 120.09 8.84835 120.139 9.06978C120.189 9.28628 120.213 9.54215 120.213 9.83247L120.194 12.8636C120.194 13.5672 120.189 14.2167 120.184 14.822C120.179 15.4272 120.169 15.9734 120.154 16.4556C120.45 16.4556 120.697 16.4507 120.894 16.4458C121.092 16.4408 121.255 16.431 121.383 16.4162C121.511 16.4015 121.615 16.3818 121.694 16.3523C121.773 16.3227 121.852 16.2785 121.926 16.2145C122.01 16.0964 122.064 15.9734 122.084 15.8602C122.104 15.747 122.114 15.6142 122.114 15.4715V9.75866C122.286 9.58644 122.479 9.46835 122.686 9.39454C122.894 9.32073 123.121 9.28628 123.368 9.28628H123.456ZM115.302 8.94184C115.657 8.94184 115.924 9.05994 116.097 9.29612C116.269 9.53231 116.378 9.89152 116.427 10.3737V10.5558C116.427 10.5902 116.432 10.6247 116.437 10.6542C116.442 10.6837 116.447 10.7182 116.447 10.7526C116.447 10.8609 116.442 10.9642 116.427 11.0626C116.417 11.161 116.398 11.2398 116.373 11.2988C116.324 11.3234 116.279 11.3382 116.235 11.3431C116.19 11.348 116.146 11.3579 116.097 11.3726C115.914 11.3972 115.652 11.412 115.312 11.4169C114.971 11.4218 114.645 11.4267 114.324 11.4267H113.806C113.865 10.605 114.038 9.99485 114.315 9.6012C114.591 9.20755 114.897 8.98613 115.228 8.93692H115.302V8.94184ZM114.334 14.6153C113.984 14.2709 113.796 13.6459 113.772 12.7356C113.92 12.7504 114.028 12.7504 114.092 12.7455C114.162 12.7405 114.27 12.7356 114.413 12.7356C114.843 12.7356 115.277 12.7258 115.716 12.711C116.151 12.6913 116.511 12.6667 116.797 12.6274C117.069 12.5929 117.345 12.524 117.637 12.4256C117.923 12.3272 118.125 12.2337 118.234 12.1353C118.293 11.8302 118.328 11.4759 118.328 11.0626C118.328 10.9052 118.323 10.7526 118.318 10.6099C118.313 10.4672 118.303 10.3245 118.288 10.1917C118.214 9.39454 117.948 8.75978 117.493 8.29724C117.039 7.82979 116.368 7.59852 115.48 7.59852C114.951 7.59852 114.463 7.68709 114.013 7.86423C113.564 8.04137 113.174 8.31693 112.849 8.70073C112.523 9.07962 112.266 9.5766 112.083 10.1868C111.901 10.7969 111.807 11.5448 111.807 12.4305C111.807 13.1834 111.891 13.8329 112.054 14.3889C112.222 14.945 112.473 15.3977 112.819 15.7519C113.189 16.1161 113.599 16.3523 114.048 16.4704C114.497 16.5835 114.956 16.6426 115.42 16.6426C115.716 16.6426 115.998 16.6229 116.259 16.5786C116.526 16.5343 116.723 16.495 116.857 16.4605H116.837C116.985 16.4261 117.128 16.3719 117.271 16.308C117.414 16.244 117.538 16.1653 117.651 16.0816C117.76 15.998 117.854 15.9045 117.928 15.811C118.002 15.7126 118.036 15.6191 118.036 15.5207C118.027 15.4223 118.007 15.2894 117.982 15.1221C117.957 14.9548 117.913 14.7826 117.854 14.6153C117.498 14.8072 117.138 14.945 116.783 15.0237C116.427 15.1024 116.067 15.1418 115.712 15.1418C115.149 15.132 114.685 14.9597 114.334 14.6153ZM110.134 14.8958C110.099 14.9204 110.035 14.9548 109.941 14.9942C109.847 15.0385 109.744 15.0778 109.625 15.1123C109.507 15.1467 109.393 15.1812 109.285 15.2008C109.176 15.2254 109.087 15.2353 109.028 15.2353C108.732 15.2353 108.534 15.0827 108.436 14.7826C108.337 14.4824 108.268 14.0937 108.233 13.6213V12.7307C108.233 12.5388 108.228 12.342 108.223 12.1501C108.218 11.9582 108.213 11.7564 108.213 11.5498C108.213 11.161 108.218 10.7772 108.223 10.3885C108.228 9.99977 108.238 9.60612 108.253 9.20755H109.028C109.201 9.20755 109.378 9.20263 109.561 9.18787C109.635 9.18787 109.714 9.18295 109.803 9.17803C109.887 9.17311 109.961 9.16327 110.025 9.14851C110.208 9.11406 110.346 9.01073 110.43 8.83851C110.514 8.67121 110.573 8.33169 110.598 7.81994H108.253C108.253 7.47058 108.258 7.1409 108.263 6.8309C108.268 6.52091 108.278 6.17646 108.292 5.78774V5.51218C107.74 5.54663 107.33 5.64504 107.063 5.8025C106.797 5.95996 106.629 6.14202 106.555 6.34869C106.54 6.60456 106.525 6.86535 106.51 7.13598C106.491 7.40661 106.476 7.67233 106.466 7.92328C106.407 7.94788 106.357 7.95772 106.328 7.94788C106.298 7.94296 106.244 7.9528 106.17 7.9774C106.046 8.01185 105.918 8.05121 105.78 8.0955C105.647 8.13978 105.508 8.20867 105.375 8.30708C105.301 8.38089 105.257 8.44486 105.237 8.49899C105.217 8.55311 105.207 8.71549 105.207 8.98121C105.341 9.04025 105.494 9.09438 105.666 9.14359C105.839 9.19279 106.046 9.22232 106.293 9.23216V13.5524C106.293 13.9264 106.323 14.3004 106.377 14.6694C106.432 15.0385 106.54 15.3731 106.698 15.6683C106.856 15.9635 107.078 16.2046 107.364 16.3867C107.646 16.5688 108.021 16.6573 108.49 16.6573C108.786 16.6573 109.092 16.618 109.413 16.5392C109.734 16.4605 109.995 16.3523 110.208 16.2194C110.341 16.1013 110.43 15.9832 110.464 15.875C110.474 15.8012 110.484 15.7224 110.484 15.6289V15.3632C110.484 15.2796 110.479 15.2008 110.474 15.1369C110.469 15.0729 110.459 15.0089 110.445 14.945L110.134 14.8958ZM101.298 9.50279C101.481 9.7685 101.574 10.231 101.574 10.8806V15.6339C101.574 15.9242 101.643 16.1948 101.777 16.4507C102.083 16.4507 102.339 16.4458 102.542 16.431C102.744 16.4162 102.912 16.4015 103.04 16.3867C103.169 16.367 103.272 16.3424 103.356 16.3031C103.435 16.2686 103.504 16.2194 103.569 16.1604C103.554 15.811 103.549 15.4173 103.539 14.9794C103.534 14.5464 103.529 14.0789 103.529 13.582V10.8412C103.529 10.3196 103.495 9.86199 103.425 9.46342C103.356 9.06486 103.223 8.73026 103.021 8.4547C102.818 8.18407 102.537 7.97248 102.181 7.82979C101.826 7.68217 101.357 7.61328 100.78 7.61328C100.557 7.61328 100.35 7.63296 100.163 7.66741C99.9701 7.70185 99.7776 7.75106 99.5801 7.8101C99.4074 7.86915 99.2297 7.94296 99.047 8.02661C98.8644 8.11026 98.6768 8.21851 98.4942 8.35137C98.4349 8.24312 98.351 8.14962 98.2474 8.08074C98.1437 8.00693 98.0055 7.97248 97.8327 7.97248H97.7291C97.6846 7.97248 97.6353 7.98232 97.5711 8.00693C97.191 8.16439 96.9294 8.31693 96.7961 8.45962C96.8554 8.64169 96.9047 8.83851 96.9442 9.05994C96.9788 9.27644 96.9985 9.53231 96.9985 9.82263V12.8734C96.9985 13.5623 96.9936 14.2118 96.9886 14.817C96.9837 15.4223 96.9738 15.9685 96.959 16.4507H97.4378C97.6353 16.4507 97.8031 16.4458 97.9364 16.4408C98.0697 16.4359 98.1832 16.4212 98.277 16.4064C98.3708 16.3867 98.4497 16.367 98.5188 16.3424C98.588 16.3178 98.6521 16.2785 98.7114 16.2145C98.8101 16.0816 98.8693 15.9537 98.894 15.8356C98.9187 15.7126 98.9286 15.5502 98.9286 15.3435V9.75866L98.8743 9.81279C99.0569 9.60612 99.2691 9.43882 99.511 9.30597C99.7529 9.17311 100.019 9.10914 100.316 9.10914C100.785 9.10422 101.11 9.23708 101.298 9.50279ZM92.1068 8.94184C92.4622 8.94184 92.7287 9.05994 92.9015 9.29612C93.0743 9.53231 93.1829 9.89152 93.2322 10.3737V10.5558C93.2322 10.5902 93.2372 10.6247 93.2421 10.6542C93.247 10.6837 93.252 10.7182 93.252 10.7526C93.252 10.8609 93.247 10.9642 93.2322 11.0626C93.2223 11.161 93.2026 11.2398 93.1779 11.2988C93.1286 11.3234 93.0841 11.3382 93.0397 11.3431C92.9953 11.348 92.9509 11.3579 92.9015 11.3726C92.7189 11.3972 92.4572 11.412 92.1166 11.4169C91.7761 11.4218 91.4503 11.4267 91.1294 11.4267H90.6111C90.6703 10.605 90.8431 9.99485 91.1195 9.6012C91.396 9.20755 91.702 8.98613 92.0327 8.93692H92.1068V8.94184ZM91.1393 14.6153C90.7888 14.2709 90.6012 13.6459 90.5766 12.7356C90.7246 12.7504 90.8332 12.7504 90.8974 12.7455C90.9665 12.7405 91.0702 12.7356 91.2183 12.7356C91.6477 12.7356 92.0821 12.7258 92.5214 12.711C92.9558 12.6913 93.3161 12.6667 93.6024 12.6274C93.8739 12.5929 94.1553 12.524 94.4416 12.4256C94.7279 12.3272 94.9303 12.2337 95.0389 12.1353C95.0981 11.8302 95.1326 11.4759 95.1326 11.0626C95.1326 10.9052 95.1277 10.7526 95.1228 10.6099C95.1178 10.4672 95.108 10.3245 95.0932 10.1917C95.0191 9.39454 94.7526 8.75978 94.2984 8.29724C93.8443 7.82979 93.173 7.59852 92.2894 7.59852C91.7612 7.59852 91.2726 7.68709 90.8234 7.86423C90.3742 8.04137 89.9892 8.31693 89.6634 8.70073C89.3376 9.07962 89.0809 9.5766 88.8983 10.1868C88.7156 10.7969 88.6218 11.5448 88.6218 12.4305C88.6218 13.1834 88.7058 13.8329 88.8736 14.3889C89.0414 14.945 89.2932 15.3977 89.6387 15.7519C90.0089 16.1161 90.4186 16.3523 90.8678 16.4704C91.317 16.5835 91.7761 16.6426 92.2401 16.6426C92.5362 16.6426 92.8126 16.6229 93.0792 16.5786C93.3457 16.5343 93.5432 16.495 93.6765 16.4605H93.6567C93.8048 16.4261 93.948 16.3719 94.0911 16.308C94.2343 16.244 94.3577 16.1653 94.4712 16.0816C94.5798 15.998 94.6736 15.9045 94.7476 15.811C94.8217 15.7126 94.8612 15.6191 94.8612 15.5207C94.8463 15.4223 94.8315 15.2894 94.8069 15.1221C94.7822 14.9548 94.7378 14.7826 94.6785 14.6153C94.3231 14.8072 93.9628 14.945 93.6074 15.0237C93.252 15.1024 92.8916 15.1418 92.5362 15.1418C91.9538 15.132 91.4898 14.9597 91.1393 14.6153ZM82.3677 16.057V9.73898L82.3134 9.7931C82.4961 9.6012 82.7083 9.4339 82.9502 9.29612C83.1921 9.15835 83.4487 9.08946 83.735 9.08946C84.1299 9.08946 84.4014 9.22232 84.5446 9.48803C84.6927 9.75374 84.7667 10.2212 84.7667 10.8855V15.7864C84.7667 15.9193 84.7815 16.0423 84.8111 16.1505C84.8407 16.2588 84.8802 16.3621 84.9296 16.4605C85.2356 16.4605 85.4874 16.4556 85.6848 16.4408C85.8823 16.4261 86.0501 16.4113 86.1834 16.3965C86.3167 16.3769 86.4302 16.3523 86.5141 16.3129C86.598 16.2785 86.6819 16.2292 86.756 16.1702C86.7313 15.8553 86.7165 15.4961 86.7165 15.0926V13.8132V10.8018C86.7165 10.3442 86.6869 9.92596 86.6227 9.552C86.5635 9.17803 86.4499 8.85327 86.292 8.58264C86.134 8.312 85.9119 8.0955 85.6256 7.93804C85.3442 7.78058 84.9839 7.68217 84.5544 7.64772H84.5742C84.5248 7.63788 84.4656 7.62804 84.4014 7.62804H84.1892C83.7696 7.62804 83.3846 7.68709 83.0242 7.8101C82.8416 7.86915 82.6392 7.94788 82.4171 8.04629C82.195 8.1447 81.9975 8.25788 81.8247 8.39073C81.652 8.18407 81.4397 8.01677 81.1781 7.88391C80.9214 7.75106 80.5956 7.66741 80.2007 7.62804C80.1415 7.6182 80.0724 7.60836 80.0082 7.60836H79.8355C79.406 7.60836 79.0062 7.66741 78.636 7.79042C78.2806 7.89867 77.9153 8.08074 77.5451 8.33661C77.4859 8.2382 77.397 8.15455 77.2884 8.07582C77.1798 7.99709 77.0367 7.95772 76.8639 7.95772H76.7701C76.7306 7.95772 76.6813 7.96756 76.622 7.99217C76.2173 8.14962 75.9507 8.30216 75.8273 8.44486C75.8865 8.62692 75.9408 8.82375 75.9853 9.04517C76.0297 9.26168 76.0494 9.51755 76.0494 9.80787V13.021V14.9105C76.0494 15.4912 76.0445 16.0127 76.0297 16.4704H76.7602C76.9528 16.4704 77.1058 16.4605 77.2292 16.4458C77.3526 16.4261 77.4562 16.4015 77.5451 16.3719C77.629 16.3424 77.7129 16.2981 77.787 16.2342C77.8758 16.1358 77.9301 16.0373 77.9548 15.9242C77.9795 15.8159 77.9893 15.688 77.9893 15.5453V9.73898C78.1621 9.55692 78.3645 9.40438 78.5965 9.27644C78.8285 9.14851 79.0901 9.08454 79.3715 9.08454C79.7664 9.08454 80.0379 9.21739 80.1909 9.48311C80.3439 9.74882 80.4229 10.2163 80.4229 10.8806V13.0407V14.9204C80.4229 15.4961 80.4081 16.0127 80.3834 16.4704H81.3065H81.731C81.8396 16.4704 81.9284 16.4654 81.9876 16.4507C82.2443 16.3769 82.3677 16.2489 82.3677 16.057ZM71.1281 8.94184C71.4835 8.94184 71.75 9.05994 71.9228 9.29612C72.0956 9.53231 72.2042 9.89152 72.2535 10.3737V10.5558C72.2535 10.5902 72.2585 10.6247 72.2634 10.6542C72.2683 10.6837 72.2733 10.7182 72.2733 10.7526C72.2733 10.8609 72.2683 10.9642 72.2535 11.0626C72.2387 11.161 72.2239 11.2398 72.1992 11.2988C72.1499 11.3234 72.1054 11.3382 72.061 11.3431C72.0166 11.348 71.9722 11.3579 71.9228 11.3726C71.7402 11.3972 71.4785 11.412 71.138 11.4169C70.8023 11.4218 70.4716 11.4267 70.1507 11.4267H69.6324C69.6917 10.605 69.8644 9.99485 70.1408 9.6012C70.4173 9.20755 70.7233 8.98613 71.054 8.93692H71.1281V8.94184ZM70.1606 14.6153C69.8101 14.2709 69.6226 13.6459 69.5979 12.7356C69.746 12.7504 69.8545 12.7504 69.9187 12.7455C69.9878 12.7405 70.0915 12.7356 70.2396 12.7356C70.669 12.7356 71.1034 12.7258 71.5427 12.711C71.9771 12.6913 72.3374 12.6667 72.6237 12.6274C72.8952 12.5929 73.1717 12.524 73.4629 12.4256C73.7541 12.3272 73.9516 12.2337 74.0602 12.1353C74.1194 11.8302 74.1539 11.4759 74.1539 11.0626C74.1539 10.9052 74.149 10.7526 74.1441 10.6099C74.1391 10.4672 74.1293 10.3245 74.1145 10.1917C74.0404 9.39454 73.7788 8.75978 73.3197 8.29724C72.8656 7.82979 72.1943 7.59852 71.3107 7.59852C70.7826 7.59852 70.2939 7.68709 69.8447 7.86423C69.3955 8.04137 69.0105 8.31693 68.6847 8.70073C68.3589 9.07962 68.1022 9.5766 67.9196 10.1868C67.7369 10.7969 67.6431 11.5448 67.6431 12.4305C67.6431 13.1834 67.7271 13.8329 67.8949 14.3889C68.0627 14.945 68.3145 15.3977 68.66 15.7519C69.0302 16.1161 69.4399 16.3523 69.8891 16.4704C70.3383 16.5835 70.7974 16.6426 71.2614 16.6426C71.5575 16.6426 71.834 16.6229 72.1005 16.5786C72.3671 16.5343 72.5645 16.495 72.7027 16.4605H72.683C72.8311 16.4261 72.9742 16.3719 73.1174 16.308C73.2605 16.244 73.3839 16.1653 73.4974 16.0816C73.611 15.998 73.6998 15.9045 73.7739 15.811C73.8479 15.7126 73.8825 15.6191 73.8825 15.5207C73.8676 15.4223 73.8528 15.2894 73.8282 15.1221C73.8035 14.9548 73.7591 14.7826 73.6998 14.6153C73.3444 14.8072 72.9841 14.945 72.6287 15.0237C72.2733 15.1024 71.9129 15.1418 71.5575 15.1418C70.9751 15.132 70.5111 14.9597 70.1606 14.6153ZM59.5627 16.4556C60.0661 16.4556 60.4462 16.4408 60.698 16.4113C60.9497 16.3818 61.1175 16.2981 61.2064 16.1653V15.3485C61.2064 15.1418 61.2015 14.9253 61.1965 14.694C61.1916 14.4628 61.1866 14.202 61.1866 13.9116V10.6985C61.2854 10.7575 61.3792 10.8461 61.4631 10.9642C61.547 11.0774 61.7099 11.2644 61.9419 11.5153C62.164 11.7712 62.3861 12.0467 62.6083 12.3518C62.8304 12.652 63.0377 12.9718 63.2352 13.2966C63.4326 13.6213 63.6152 13.9461 63.7781 14.261C63.946 14.5759 64.0891 14.8662 64.2125 15.132C64.3458 15.4223 64.5186 15.7126 64.7209 16.0029C64.9233 16.2932 65.2096 16.4605 65.5798 16.5097H65.8563C66.029 16.5097 66.187 16.4999 66.3252 16.4753C66.4683 16.4507 66.572 16.4261 66.646 16.4015C66.8534 16.3178 66.962 16.2096 66.962 16.0767C66.8287 15.9439 66.6559 15.6978 66.4535 15.3435C66.2511 14.9893 66.0241 14.5907 65.7822 14.1528C65.5848 13.7886 65.3775 13.4097 65.1553 13.0112C64.9332 12.6126 64.7012 12.214 64.4544 11.8204C64.2076 11.4267 63.9558 11.0528 63.6992 10.7034C63.4425 10.3541 63.1809 10.0441 62.9242 9.77834C63.171 9.45358 63.4277 9.11406 63.6992 8.75978C63.9706 8.41042 64.2421 8.05121 64.5136 7.68709C64.7851 7.32296 65.0517 6.96376 65.3182 6.60948C65.5798 6.25027 65.8316 5.91567 66.0636 5.60075C66.0537 5.6106 66.0586 5.59583 66.0833 5.55647C66.108 5.51218 66.1426 5.46298 66.187 5.40393C66.2314 5.34488 66.2758 5.28092 66.3252 5.21203C66.3746 5.14314 66.4091 5.09393 66.4338 5.05949C66.5177 4.90203 66.5621 4.77901 66.5621 4.69536C66.5621 4.61171 66.5128 4.53298 66.414 4.46902C66.3153 4.40505 66.1623 4.36568 65.955 4.35092H65.6391C65.5798 4.35092 65.5107 4.346 65.4466 4.34108C65.3775 4.33616 65.3133 4.33124 65.254 4.33124H65.022C64.9529 4.33124 64.8641 4.34108 64.7555 4.36568C64.326 4.93647 63.8966 5.52202 63.4721 6.12726C63.0476 6.73249 62.6181 7.33281 62.1887 7.92328C62.0307 8.13978 61.8629 8.37105 61.6901 8.61216C61.5174 8.85327 61.3495 9.08454 61.1916 9.30104V5.56139C61.1916 5.24647 61.1817 5.00536 61.162 4.83314C61.1422 4.66584 61.0929 4.49854 61.004 4.34108C60.4512 4.34108 60.0316 4.36568 59.7502 4.41489C59.4689 4.4641 59.2764 4.52806 59.1776 4.61171C59.1875 4.92663 59.1974 5.27599 59.2072 5.66472C59.2122 6.05345 59.2171 6.50122 59.2171 7.00805V15.6093C59.2171 15.7667 59.227 15.9094 59.2517 16.0373C59.2764 16.1653 59.3307 16.2883 59.4195 16.4113L59.5627 16.4556Z" fill="#00539B"/>
<path d="M147.747 24.8944C147.93 25.1601 148.024 25.6177 148.024 26.2722V31.0304C148.024 31.3207 148.093 31.5913 148.226 31.8472C148.532 31.8472 148.784 31.8423 148.986 31.8275C149.189 31.8128 149.351 31.798 149.48 31.7832C149.608 31.7636 149.712 31.739 149.791 31.6996C149.87 31.6652 149.939 31.616 150.003 31.552C149.993 31.2026 149.983 30.809 149.973 30.371C149.968 29.9331 149.964 29.4706 149.964 28.9736V26.2328C149.964 25.7112 149.929 25.2536 149.865 24.855C149.796 24.4565 149.662 24.1219 149.46 23.8463C149.258 23.5757 148.981 23.3641 148.626 23.2214C148.27 23.0738 147.806 23.0049 147.234 23.0049C147.017 23.0049 146.809 23.0246 146.622 23.059C146.434 23.0935 146.242 23.1427 146.044 23.2017C145.871 23.2608 145.699 23.3346 145.516 23.4182C145.333 23.5019 145.151 23.6101 144.968 23.743C144.909 23.6347 144.825 23.5413 144.721 23.4724C144.618 23.3986 144.479 23.3641 144.312 23.3641H144.213C144.168 23.3641 144.119 23.374 144.055 23.3986C143.675 23.556 143.418 23.7086 143.285 23.8512C143.344 24.0333 143.394 24.2301 143.433 24.4516C143.472 24.6681 143.487 24.9239 143.487 25.2143V28.265C143.487 28.9539 143.482 29.6034 143.477 30.2087C143.472 30.8139 143.463 31.3601 143.453 31.8423H143.927C144.119 31.8423 144.287 31.8374 144.42 31.8325C144.554 31.8275 144.667 31.8128 144.756 31.798C144.85 31.7783 144.929 31.7586 144.993 31.734C145.062 31.7094 145.126 31.6701 145.185 31.6061C145.284 31.4733 145.343 31.3453 145.368 31.2272C145.393 31.1042 145.403 30.9418 145.403 30.7352V25.1454L145.348 25.1995C145.531 24.9928 145.743 24.8255 145.98 24.6927C146.217 24.5598 146.484 24.4909 146.775 24.4909C147.244 24.4909 147.565 24.6287 147.747 24.8944ZM139.158 30.0118C139.153 30.061 139.148 30.0807 139.148 30.066L139.168 30.0463C139.06 30.189 138.882 30.3169 138.645 30.4202C138.408 30.5236 138.166 30.5728 137.924 30.5728H137.816C137.584 30.5482 137.396 30.4498 137.248 30.2825C137.1 30.1152 137.026 29.815 137.026 29.3918C137.026 29.1261 137.065 28.8998 137.144 28.7177C137.223 28.5357 137.332 28.3831 137.465 28.265C137.598 28.142 137.756 28.0485 137.934 27.9845C138.112 27.9157 138.299 27.8665 138.492 27.832H138.472C138.571 27.8222 138.665 27.8123 138.758 27.8025C138.847 27.7976 138.946 27.7926 139.04 27.7926H139.222V28.9884V29.4706C139.222 29.6083 139.213 29.7363 139.188 29.8445C139.173 29.9085 139.163 29.9626 139.158 30.0118ZM135.668 24.3482C135.693 24.4466 135.728 24.5647 135.767 24.7124C135.807 24.86 135.9 24.9977 136.034 25.1306C136.167 25.1306 136.29 25.1208 136.399 25.0962C136.508 25.0716 136.611 25.0371 136.71 24.9879C136.977 24.8895 137.278 24.7911 137.608 24.6877C137.939 24.5844 138.25 24.5352 138.541 24.5352C138.847 24.5352 139.035 24.6336 139.109 24.8255C139.183 25.0174 139.218 25.3077 139.218 25.6965V26.5871C139.158 26.5773 139.094 26.5674 139.035 26.5674H138.813H138.546C138.452 26.5674 138.364 26.5723 138.28 26.5871C137.988 26.6215 137.658 26.6954 137.292 26.7987C136.927 26.902 136.577 27.0644 136.251 27.2907C135.92 27.5171 135.644 27.8123 135.417 28.1814C135.19 28.5504 135.076 29.008 135.076 29.5542C135.076 29.9774 135.14 30.3464 135.278 30.6515C135.412 30.9615 135.594 31.2125 135.826 31.4142C136.058 31.616 136.315 31.7636 136.606 31.8571C136.893 31.9555 137.194 32.0047 137.515 32.0047C137.771 32.0047 138.013 31.9899 138.245 31.9604C138.477 31.9309 138.704 31.862 138.921 31.7488C138.981 31.7144 139.055 31.6652 139.134 31.611C139.213 31.5569 139.277 31.5126 139.326 31.4733C139.45 31.6061 139.607 31.7291 139.81 31.8374C140.012 31.9456 140.215 31.9998 140.422 31.9998C140.703 31.985 140.94 31.9309 141.138 31.8275C141.33 31.7242 141.473 31.611 141.557 31.4929C141.557 31.4339 141.562 31.3207 141.567 31.1583C141.572 30.996 141.582 30.8483 141.597 30.7155C141.449 30.7401 141.34 30.7204 141.266 30.6515C141.192 30.5826 141.143 30.5039 141.118 30.4055C141.083 30.2972 141.069 30.1644 141.083 30.0069V29.6822C141.083 29.5493 141.088 29.4115 141.093 29.2639C141.098 29.1212 141.103 28.9736 141.103 28.826V28.4471C141.113 28.1076 141.123 27.768 141.123 27.4236V26.4001V25.603C141.123 24.8058 140.985 24.1858 140.703 23.7528C140.422 23.3198 139.918 23.0738 139.183 23.0295C139.035 23.0147 138.931 23.0098 138.862 23.0098H138.541C138.225 23.0197 137.914 23.059 137.618 23.1181C137.317 23.1771 137.046 23.2559 136.794 23.3444C136.542 23.433 136.325 23.5314 136.137 23.6347C135.95 23.7381 135.807 23.8316 135.708 23.9152C135.673 24.0136 135.654 24.0924 135.654 24.1514V24.2498C135.654 24.2793 135.663 24.3236 135.688 24.3876L135.668 24.3482ZM131.542 21.0613C131.695 21.2433 131.961 21.3319 132.337 21.3319C132.776 21.3319 133.067 21.2286 133.215 21.0121C133.363 20.8005 133.442 20.52 133.452 20.1706C133.462 19.8213 133.408 19.5556 133.279 19.3833C133.151 19.2062 132.875 19.1176 132.445 19.1176C131.69 19.1176 131.31 19.4818 131.31 20.2051C131.315 20.5987 131.394 20.8792 131.542 21.0613ZM133.037 23.1673C132.623 23.1673 132.267 23.1919 131.976 23.2509C131.685 23.3051 131.483 23.4478 131.374 23.679C131.384 23.9201 131.394 24.1859 131.404 24.4762C131.409 24.7665 131.413 25.1158 131.413 25.5292V28.6882C131.413 28.9785 131.409 29.2639 131.404 29.5395C131.399 29.8199 131.394 30.0906 131.394 30.3563V31.8423C131.71 31.8325 131.971 31.8226 132.174 31.8128C132.376 31.8079 132.539 31.798 132.667 31.7882C132.796 31.7783 132.889 31.7537 132.949 31.7242C133.008 31.6947 133.057 31.6553 133.097 31.6061C133.269 31.3404 133.353 31.0058 133.353 30.6072V24.5303C133.353 24.1416 133.343 23.866 133.324 23.6938C133.304 23.5265 133.26 23.369 133.186 23.2214L133.037 23.1673ZM128.664 24.673C128.699 24.673 128.748 24.6877 128.812 24.7074C128.886 24.7173 128.97 24.7271 129.059 24.732C129.148 24.737 129.246 24.7419 129.34 24.7419H129.503C129.528 24.7419 129.572 24.732 129.631 24.7074C129.765 24.5254 129.854 24.3236 129.898 24.0973C129.942 23.8759 129.962 23.6938 129.962 23.5609C129.903 23.2805 129.597 23.1132 129.049 23.0541C128.876 23.0295 128.699 23.0344 128.511 23.064C128.323 23.0935 128.146 23.1378 127.988 23.2017C127.815 23.2608 127.637 23.3346 127.45 23.4182C127.262 23.5019 127.079 23.6052 126.912 23.7282C126.852 23.5954 126.773 23.5019 126.685 23.4478C126.596 23.3936 126.448 23.3641 126.255 23.3641H126.147C126.112 23.3641 126.063 23.374 125.998 23.3986C125.791 23.4822 125.623 23.5609 125.505 23.6347C125.381 23.7086 125.283 23.7774 125.214 23.8512C125.273 24.0333 125.327 24.2301 125.377 24.4516C125.426 24.6681 125.451 24.9239 125.451 25.2143L125.431 28.2453C125.431 28.949 125.426 29.5985 125.421 30.2037C125.416 30.809 125.406 31.3552 125.391 31.8374C125.683 31.8374 125.929 31.8325 126.122 31.8275C126.319 31.8226 126.477 31.8128 126.606 31.8029C126.734 31.7882 126.838 31.7685 126.917 31.739C126.996 31.7094 127.075 31.6652 127.144 31.6012C127.228 31.4831 127.282 31.3601 127.302 31.2469C127.321 31.1337 127.331 31.0009 127.331 30.8582V25.1454C127.504 24.9781 127.692 24.8551 127.899 24.7812C128.106 24.7074 128.333 24.673 128.575 24.673H128.664ZM123.284 30.2825C123.244 30.3071 123.185 30.3415 123.091 30.3809C123.002 30.4252 122.899 30.4645 122.78 30.499C122.667 30.5334 122.553 30.5629 122.439 30.5875C122.331 30.6121 122.242 30.622 122.183 30.622C121.892 30.622 121.694 30.4695 121.595 30.1693C121.497 29.8691 121.433 29.4804 121.393 29.008V28.1174C121.393 27.9255 121.388 27.7287 121.383 27.5368C121.378 27.3449 121.373 27.1431 121.373 26.9365C121.373 26.5477 121.378 26.1639 121.383 25.7752C121.388 25.3865 121.398 24.9928 121.413 24.5943H122.183C122.356 24.5943 122.528 24.5893 122.711 24.5746C122.785 24.5746 122.864 24.5697 122.948 24.5647C123.032 24.5598 123.106 24.55 123.17 24.5352C123.353 24.5008 123.486 24.3974 123.575 24.2252C123.659 24.0579 123.713 23.7184 123.738 23.2067H121.413C121.413 22.8573 121.418 22.5276 121.423 22.2176C121.428 21.9076 121.437 21.5632 121.452 21.1744V20.8841C120.904 20.9186 120.5 21.017 120.233 21.1744C119.971 21.3319 119.804 21.514 119.73 21.7206C119.72 21.9765 119.7 22.2373 119.685 22.5079C119.665 22.7786 119.651 23.0443 119.641 23.3001C119.581 23.3247 119.532 23.3346 119.502 23.3247C119.473 23.3198 119.419 23.3297 119.345 23.3543C119.221 23.3887 119.093 23.4281 118.96 23.4724C118.826 23.5166 118.693 23.5855 118.555 23.679C118.481 23.7528 118.436 23.8168 118.417 23.8709C118.397 23.9251 118.387 24.0874 118.387 24.3532C118.52 24.4122 118.673 24.4663 118.846 24.5155C119.019 24.5647 119.226 24.5943 119.468 24.6041V28.9244C119.468 29.2983 119.493 29.6723 119.552 30.0414C119.606 30.4104 119.715 30.745 119.873 31.0402C120.031 31.3355 120.253 31.5766 120.534 31.7586C120.815 31.9407 121.186 32.0293 121.65 32.0293C121.941 32.0293 122.247 31.9899 122.563 31.9112C122.879 31.8325 123.14 31.7242 123.348 31.5913C123.481 31.4733 123.57 31.3552 123.604 31.2469C123.614 31.1731 123.624 31.0944 123.624 31.0009V30.7548C123.624 30.6712 123.619 30.5925 123.614 30.5285C123.609 30.4596 123.599 30.4006 123.585 30.3366L123.284 30.2825ZM112.577 23.5855C112.039 23.9841 111.772 24.55 111.772 25.2733C111.772 25.8884 112.054 26.4788 112.617 27.0349L113.076 27.399C113.248 27.5417 113.446 27.7041 113.668 27.8812C113.895 28.0584 114.112 28.2158 114.32 28.3634C114.295 28.3388 114.315 28.3536 114.384 28.3979C114.453 28.4471 114.502 28.4815 114.542 28.5061C114.798 28.6784 114.976 28.8506 115.08 29.0228C115.183 29.1999 115.238 29.3869 115.238 29.5936C115.238 29.8741 115.164 30.1004 115.011 30.2726C114.858 30.4498 114.64 30.5482 114.359 30.5728C114.3 30.5826 114.241 30.5925 114.186 30.6023C114.132 30.6072 114.078 30.6121 114.028 30.6121C113.806 30.6121 113.584 30.5826 113.362 30.5285C113.135 30.4744 112.928 30.4055 112.73 30.3218V30.3415C112.523 30.2333 112.34 30.1791 112.182 30.1791H112C111.891 30.3218 111.802 30.4891 111.733 30.6761C111.664 30.8631 111.634 31.0255 111.634 31.1583C111.743 31.4142 112.029 31.6209 112.483 31.7832C112.942 31.9456 113.466 32.0293 114.068 32.0293C114.507 32.0293 114.922 31.9752 115.312 31.8669C115.702 31.7586 116.042 31.5963 116.338 31.3748C116.63 31.1583 116.862 30.8877 117.025 30.5679C117.187 30.248 117.271 29.8691 117.271 29.4361C117.271 29.0474 117.182 28.6931 116.995 28.3634C116.807 28.0338 116.526 27.7139 116.136 27.399C115.978 27.2809 115.805 27.153 115.613 27.0201C115.425 26.8873 115.243 26.7544 115.075 26.6215C114.927 26.5231 114.788 26.4296 114.655 26.3312C114.522 26.2328 114.403 26.1492 114.31 26.0754C114.112 25.9179 113.984 25.7703 113.915 25.6374C113.846 25.5046 113.816 25.3668 113.816 25.2192C113.816 24.9781 113.91 24.7763 114.097 24.6189C114.285 24.4614 114.542 24.3827 114.858 24.3827C115.124 24.3827 115.401 24.4368 115.682 24.5451C115.781 24.5795 115.879 24.609 115.983 24.6287C116.087 24.6484 116.185 24.6681 116.284 24.6927C116.333 24.7074 116.398 24.7173 116.477 24.7271C116.556 24.737 116.615 24.7517 116.649 24.7616C116.748 24.6287 116.832 24.4712 116.906 24.2892C116.98 24.1071 117.015 23.9546 117.015 23.8365C116.98 23.7036 116.817 23.5462 116.541 23.3641C116.259 23.182 115.825 23.0689 115.243 23.0197C115.183 23.0098 115.099 23 115.006 22.9901C114.907 22.9852 114.808 22.9803 114.714 22.9803C113.821 22.9852 113.11 23.187 112.577 23.5855ZM104.951 23.1673C104.822 23.0197 104.63 22.9508 104.373 22.9508H104.279C104.245 22.9508 104.19 22.9655 104.116 22.9852C103.875 23.1082 103.677 23.2116 103.529 23.3051C103.381 23.3936 103.272 23.4724 103.198 23.5314C103.272 23.7479 103.332 23.9841 103.371 24.24C103.416 24.4958 103.435 24.7911 103.435 25.1306L103.272 28.8703C103.282 29.3672 103.327 29.8003 103.401 30.1791C103.475 30.5531 103.608 30.8729 103.805 31.1436C104.003 31.4093 104.274 31.616 104.62 31.7586C104.965 31.9013 105.42 31.9899 105.982 32.0145C106.2 32.0145 106.407 31.9948 106.594 31.9604C106.782 31.9259 106.974 31.8767 107.172 31.8177C107.345 31.7586 107.517 31.6799 107.705 31.5913C107.888 31.4979 108.07 31.3896 108.253 31.2567C108.312 31.365 108.396 31.4585 108.5 31.5372C108.603 31.6159 108.742 31.6553 108.914 31.6553H109.013C109.058 31.6553 109.107 31.6455 109.171 31.6209C109.551 31.4536 109.808 31.301 109.941 31.1682C109.882 30.9861 109.833 30.7893 109.793 30.5679C109.758 30.3514 109.739 30.0955 109.739 29.8052V26.7544C109.739 26.0655 109.744 25.416 109.749 24.8108C109.754 24.2055 109.763 23.6593 109.773 23.1771H109.299C108.895 23.187 108.618 23.2017 108.46 23.2214C108.302 23.2411 108.159 23.3051 108.041 23.4133C107.942 23.5363 107.883 23.6593 107.858 23.7873C107.833 23.9152 107.824 24.0825 107.824 24.2843V29.9479C107.675 30.1201 107.478 30.2579 107.226 30.376C106.974 30.4891 106.713 30.5383 106.432 30.5137C106.249 30.5137 106.081 30.4891 105.928 30.4399C105.775 30.3907 105.647 30.2972 105.543 30.1595C105.439 30.0217 105.36 29.8298 105.306 29.5887C105.252 29.3476 105.222 29.0326 105.222 28.6439L105.405 25.3766C105.405 24.919 105.385 24.5647 105.35 24.3138C105.316 24.0628 105.267 23.8414 105.202 23.6347C105.163 23.4625 105.079 23.3149 104.951 23.1673ZM98.9582 29.0326V29.5296C98.9582 29.6674 98.9532 29.7855 98.9384 29.8839C98.9384 30.0069 98.9286 30.0758 98.9039 30.1004L98.9236 30.0807C98.8002 30.2234 98.6373 30.3415 98.43 30.4252C98.2227 30.5088 97.9956 30.5531 97.7537 30.5531C97.5119 30.5531 97.2799 30.5039 97.0676 30.4055C96.8554 30.3071 96.6678 30.1447 96.5098 29.9134C96.3519 29.6822 96.2285 29.382 96.1446 29.0031C96.0606 28.6291 96.0162 28.1617 96.0162 27.6057C96.0162 27.0152 96.0754 26.5133 96.189 26.1C96.3025 25.6916 96.4555 25.352 96.6382 25.0912C96.8208 24.8304 97.0331 24.6435 97.27 24.5303C97.5069 24.4171 97.7488 24.3581 97.9907 24.3581C98.1733 24.3581 98.351 24.3827 98.5238 24.4319C98.6965 24.4811 98.8397 24.5451 98.9631 24.6287V29.0326H98.9582ZM100.854 29.259C100.859 28.9244 100.864 28.6587 100.864 28.452V26.4198V20.4118C100.864 19.9984 100.854 19.6933 100.829 19.4965C100.804 19.2948 100.76 19.1176 100.701 18.9602C100.237 18.9602 99.8516 18.9946 99.5456 19.0684C99.2395 19.1422 99.0322 19.2997 98.9236 19.5408C98.9335 19.7475 98.9434 19.9886 98.9532 20.2691C98.9582 20.5495 98.9631 20.8792 98.9631 21.2679V23.1919C98.8051 23.1328 98.6324 23.0836 98.4399 23.0492C98.2523 23.0147 98.0154 22.9951 97.734 22.9951C97.27 22.9951 96.8208 23.0836 96.3815 23.2657C95.9422 23.4478 95.5522 23.7233 95.2116 24.1022C94.8315 24.5254 94.5304 25.047 94.3034 25.662C94.0763 26.2771 93.9628 26.9955 93.9628 27.8025C93.9628 28.5898 94.0467 29.2442 94.2096 29.7707C94.3725 30.2972 94.6045 30.7253 94.8957 31.0501C95.1869 31.3748 95.5374 31.6159 95.9372 31.7685C96.342 31.921 96.7813 32.0096 97.2552 32.0342C97.5119 32.044 97.7537 32.0293 97.9857 31.9899C98.2177 31.9456 98.4399 31.8718 98.6423 31.7636V31.7832C98.741 31.734 98.82 31.6848 98.8891 31.6406C98.9582 31.5913 99.0174 31.5421 99.0816 31.4929C99.205 31.6258 99.358 31.7537 99.5456 31.8718C99.7331 31.9948 99.9454 32.0391 100.177 32.0145C100.459 32.0047 100.691 31.9456 100.883 31.8521C101.071 31.7537 101.214 31.6406 101.313 31.5077C101.313 31.4585 101.318 31.3453 101.323 31.1731C101.328 30.996 101.337 30.8434 101.347 30.7106C101.199 30.745 101.091 30.7302 101.017 30.6663C100.943 30.6023 100.893 30.5187 100.868 30.4202C100.834 30.312 100.819 30.1791 100.834 30.0217C100.844 29.8396 100.849 29.5887 100.854 29.259ZM89.8806 24.8944C90.0632 25.1601 90.157 25.6177 90.157 26.2722V31.0304C90.157 31.3207 90.2261 31.5913 90.3594 31.8472C90.6654 31.8472 90.9172 31.8423 91.1195 31.8275C91.3219 31.8128 91.4848 31.798 91.6132 31.7832C91.7415 31.7636 91.8452 31.739 91.9241 31.6996C92.0031 31.6652 92.0722 31.616 92.1364 31.552C92.1216 31.2026 92.1166 30.809 92.1068 30.371C92.1018 29.9331 92.0969 29.4706 92.0969 28.9736V26.2328C92.0969 25.7112 92.0623 25.2536 91.9982 24.855C91.9291 24.4565 91.7958 24.1219 91.5934 23.8463C91.391 23.5757 91.1146 23.3641 90.7592 23.2214C90.4038 23.0738 89.9398 23.0049 89.3672 23.0049C89.15 23.0049 88.9427 23.0246 88.7551 23.059C88.5675 23.0935 88.375 23.1427 88.1776 23.2017C88.0048 23.2608 87.8321 23.3346 87.6445 23.4182C87.4618 23.5019 87.2792 23.6101 87.0966 23.743C87.0373 23.6347 86.9534 23.5413 86.8498 23.4724C86.7461 23.3986 86.6079 23.3641 86.4401 23.3641H86.3413C86.2969 23.3641 86.2475 23.374 86.1883 23.3986C85.8082 23.556 85.5515 23.7086 85.4183 23.8512C85.4775 24.0333 85.5269 24.2301 85.5664 24.4516C85.6009 24.6681 85.6207 24.9239 85.6207 25.2143V28.265C85.6207 28.9539 85.6157 29.6034 85.6108 30.2087C85.6058 30.8139 85.596 31.3601 85.5812 31.8423H86.055C86.2525 31.8423 86.4154 31.8374 86.5487 31.8325C86.6819 31.8275 86.7955 31.8128 86.8892 31.798C86.983 31.7783 87.062 31.7586 87.1262 31.734C87.1953 31.7094 87.2595 31.6701 87.3187 31.6061C87.4174 31.4733 87.4766 31.3453 87.5013 31.2272C87.526 31.1042 87.5359 30.9418 87.5359 30.7352V25.1454L87.4816 25.1995C87.6642 24.9928 87.8765 24.8255 88.1134 24.6927C88.3504 24.5598 88.6169 24.4909 88.9081 24.4909C89.3771 24.4909 89.6979 24.6287 89.8806 24.8944ZM81.4545 21.0613C81.6075 21.2433 81.8741 21.3319 82.2493 21.3319C82.6886 21.3319 82.9798 21.2286 83.1279 21.0121C83.276 20.8005 83.355 20.52 83.3648 20.1706C83.3747 19.8213 83.3204 19.5556 83.1921 19.3833C83.0637 19.2062 82.7873 19.1176 82.3578 19.1176C81.6026 19.1176 81.2225 19.4818 81.2225 20.2051C81.2275 20.5987 81.3015 20.8792 81.4545 21.0613ZM82.9453 23.1673C82.5306 23.1673 82.1752 23.1919 81.884 23.2509C81.5927 23.3051 81.3904 23.4478 81.2818 23.679C81.2916 23.9201 81.3015 24.1859 81.3114 24.4762C81.3163 24.7665 81.3213 25.1158 81.3213 25.5292V28.6882C81.3213 28.9785 81.3163 29.2639 81.3114 29.5395C81.3064 29.8199 81.3015 30.0906 81.3015 30.3563V31.8423C81.6174 31.8325 81.879 31.8226 82.0814 31.8128C82.2838 31.8079 82.4467 31.798 82.575 31.7882C82.7034 31.7783 82.7972 31.7537 82.8564 31.7242C82.9156 31.6947 82.965 31.6553 83.0045 31.6061C83.1772 31.3404 83.2612 31.0058 83.2612 30.6072V24.5303C83.2612 24.1416 83.2513 23.866 83.2365 23.6938C83.2167 23.5265 83.1723 23.369 83.0983 23.2214L82.9453 23.1673ZM78.5718 24.673C78.6064 24.673 78.6557 24.6877 78.7199 24.7074C78.7939 24.7173 78.8779 24.7271 78.9667 24.732C79.0556 24.737 79.1543 24.7419 79.2481 24.7419H79.411C79.4356 24.7419 79.4801 24.732 79.5393 24.7074C79.6726 24.5254 79.7614 24.3236 79.8059 24.0973C79.8503 23.8759 79.87 23.6938 79.87 23.5609C79.8108 23.2805 79.5047 23.1132 78.9568 23.0541C78.7841 23.0295 78.6064 23.0344 78.4188 23.064C78.2312 23.0935 78.0535 23.1378 77.8956 23.2017C77.7228 23.2608 77.5451 23.3346 77.3575 23.4182C77.1699 23.5019 76.9873 23.6052 76.8195 23.7282C76.7602 23.5954 76.6813 23.5019 76.5924 23.4478C76.4986 23.3936 76.3555 23.3641 76.163 23.3641H76.0544C76.0198 23.3641 75.9705 23.374 75.9063 23.3986C75.699 23.4822 75.5311 23.5609 75.4127 23.6347C75.2893 23.7086 75.1955 23.7774 75.1214 23.8512C75.1807 24.0333 75.2399 24.2301 75.2843 24.4516C75.3337 24.6681 75.3584 24.9239 75.3584 25.2143L75.3386 28.2453C75.3386 28.949 75.3337 29.5985 75.3288 30.2037C75.3238 30.809 75.3139 31.3552 75.2991 31.8374C75.5904 31.8374 75.8372 31.8325 76.0297 31.8275C76.2271 31.8226 76.3851 31.8128 76.5134 31.8029C76.6418 31.7882 76.7454 31.7685 76.8244 31.739C76.9034 31.7094 76.9824 31.6652 77.0515 31.6012C77.1354 31.4831 77.1897 31.3601 77.2094 31.2469C77.2292 31.1337 77.239 31.0009 77.239 30.8582V25.1454C77.4118 24.9781 77.5994 24.8551 77.8067 24.7812C78.014 24.7074 78.2411 24.673 78.483 24.673H78.5718ZM70.4814 24.3285C70.8368 24.3285 71.0985 24.4466 71.2663 24.6828C71.4391 24.919 71.5476 25.2782 71.597 25.7604V25.9425C71.597 25.9769 71.6019 26.0114 71.6069 26.0409C71.6118 26.0704 71.6168 26.1049 71.6168 26.1393C71.6168 26.2476 71.6118 26.3509 71.597 26.4493C71.5871 26.5477 71.5674 26.6265 71.5427 26.6855C71.4934 26.7101 71.4489 26.7249 71.4045 26.7298C71.3601 26.7347 71.3156 26.7446 71.2663 26.7544C71.0836 26.779 70.822 26.7938 70.4864 26.7987C70.1507 26.8036 69.8249 26.8085 69.509 26.8085H68.9957C69.0549 25.9868 69.2227 25.3766 69.4991 24.983C69.7756 24.5893 70.0767 24.3679 70.4074 24.3187H70.4814V24.3285ZM69.5238 30.002C69.1783 29.6576 68.9907 29.0326 68.966 28.1223C69.1141 28.1371 69.2178 28.1371 69.2869 28.1322C69.356 28.1272 69.4597 28.1223 69.6077 28.1223C70.0372 28.1223 70.4666 28.1125 70.8961 28.0928C71.3305 28.0731 71.6859 28.0485 71.9672 28.0092C72.2338 27.9747 72.5151 27.9058 72.8014 27.8123C73.0877 27.7139 73.2852 27.6204 73.3987 27.522C73.4579 27.2219 73.4876 26.8627 73.4876 26.4493C73.4876 26.2919 73.4826 26.1393 73.4777 25.9966C73.4728 25.8539 73.4629 25.7112 73.4481 25.5784C73.374 24.7812 73.1124 24.1465 72.6632 23.6839C72.214 23.2165 71.5477 22.9852 70.669 22.9852C70.1458 22.9852 69.662 23.0738 69.2128 23.2509C68.7686 23.4281 68.3836 23.7036 68.0578 24.0874C67.7369 24.4663 67.4803 24.9633 67.2976 25.5735C67.115 26.1836 67.0212 26.9315 67.0212 27.8172C67.0212 28.5652 67.1051 29.2196 67.268 29.7756C67.4309 30.3317 67.6876 30.7844 68.0282 31.1387C68.3934 31.5028 68.7982 31.739 69.2474 31.8571C69.6917 31.9702 70.1458 32.0293 70.6098 32.0293C70.901 32.0293 71.1774 32.0096 71.444 31.9653C71.7056 31.921 71.9031 31.8817 72.0413 31.8472H72.0215C72.1696 31.8128 72.3128 31.7586 72.451 31.6947C72.5892 31.6307 72.7175 31.552 72.8261 31.4683C72.9347 31.3847 73.0285 31.2912 73.1025 31.1977C73.1766 31.0993 73.2111 31.0058 73.2111 30.9074C73.2013 30.809 73.1815 30.6761 73.1568 30.5088C73.1322 30.3415 73.0877 30.1693 73.0285 30.002C72.6731 30.1939 72.3226 30.3317 71.9672 30.4104C71.6118 30.4891 71.2614 30.5285 70.906 30.5285C70.3284 30.5187 69.8694 30.3464 69.5238 30.002ZM59.227 28.0879C59.227 28.8161 59.2221 29.4903 59.2171 30.1201C59.2122 30.7499 59.2023 31.3256 59.1924 31.8423H59.6861C60.0513 31.8423 60.3278 31.8325 60.5104 31.8128C60.693 31.7931 60.8411 31.7291 60.9497 31.6209C61.0978 31.429 61.1718 31.178 61.1718 30.8779L61.1521 28.8801V21.0465C61.2508 21.0367 61.3545 21.0268 61.4729 21.0268H61.8678C62.1245 21.0268 62.3615 21.0662 62.5836 21.1449C62.8057 21.2237 62.9933 21.3516 63.1611 21.5238C63.324 21.7009 63.4573 21.9322 63.556 22.2225C63.6547 22.5128 63.7041 22.8622 63.7041 23.2755C63.7041 23.7725 63.6498 24.1859 63.5412 24.5205C63.4326 24.8551 63.2944 25.1208 63.1315 25.3274C62.9686 25.5341 62.781 25.6768 62.5737 25.7604C62.3664 25.8441 62.164 25.8884 61.9715 25.8884C61.8629 25.8884 61.7592 25.9179 61.6704 25.972C61.5766 26.0262 61.5322 26.0852 61.5322 26.1442C61.5322 26.3509 61.5717 26.5084 61.6408 26.6265C61.7148 26.7396 61.8086 26.8233 61.9221 26.8823C62.0357 26.9365 62.164 26.9709 62.2973 26.9807C62.4306 26.9955 62.5589 27.0004 62.6823 27.0004C62.9982 26.966 63.3437 26.8774 63.709 26.7396C64.0743 26.6019 64.4149 26.3903 64.7259 26.1049C65.0368 25.8195 65.2935 25.4554 65.4959 25.0076C65.6983 24.5598 65.797 24.0087 65.797 23.3543C65.797 22.6752 65.7082 22.0995 65.5206 21.6222C65.338 21.1449 65.0714 20.7562 64.7259 20.4511C64.3803 20.151 63.9558 19.9295 63.4523 19.7868C62.9538 19.6491 62.3861 19.5802 61.7494 19.5802C61.4186 19.5802 61.0929 19.5851 60.772 19.59C60.4512 19.5949 60.1451 19.6097 59.8638 19.6343C59.5577 19.6441 59.3306 19.7081 59.1875 19.8164C59.1875 19.8656 59.1924 19.9148 59.1974 19.9689C59.2023 20.023 59.2072 20.0722 59.2072 20.1214V20.3576L59.227 28.0879Z" fill="#00539B"/>
<path d="M146.36 39.4938L147.086 37.5059L147.826 39.4938H146.36ZM147.678 36.2512H146.528L144.43 41.6146H145.58L146.024 40.3943H148.177L148.646 41.6146H149.825L147.678 36.2512ZM143.418 36.2512H142.332V41.6146H143.418V36.2512ZM137.199 41.2456C137.564 41.5605 138.087 41.718 138.763 41.718C139.232 41.718 139.622 41.654 139.933 41.5211C140.244 41.3932 140.486 41.1915 140.659 40.9208C140.832 40.6551 140.916 40.3648 140.916 40.0548C140.916 39.7153 140.846 39.4299 140.703 39.1986C140.56 38.9673 140.363 38.7853 140.111 38.6524C139.859 38.5196 139.464 38.3916 138.936 38.2637C138.408 38.1407 138.072 38.0177 137.939 37.9045C137.83 37.8159 137.776 37.7077 137.776 37.5797C137.776 37.442 137.835 37.3288 137.949 37.2451C138.127 37.1172 138.373 37.0532 138.689 37.0532C138.995 37.0532 139.222 37.1123 139.375 37.2353C139.529 37.3583 139.627 37.5551 139.677 37.8307L140.763 37.7815C140.748 37.2894 140.565 36.8958 140.225 36.6005C139.884 36.3053 139.375 36.1577 138.699 36.1577C138.285 36.1577 137.934 36.2217 137.638 36.3447C137.347 36.4677 137.12 36.6497 136.967 36.8859C136.814 37.1221 136.735 37.378 136.735 37.6535C136.735 38.0767 136.902 38.4359 137.228 38.7312C137.465 38.9427 137.87 39.1199 138.452 39.2626C138.907 39.3758 139.198 39.4545 139.321 39.4988C139.509 39.5627 139.637 39.6415 139.711 39.73C139.785 39.8186 139.825 39.9269 139.825 40.0548C139.825 40.2516 139.736 40.4238 139.558 40.5715C139.38 40.7191 139.119 40.7929 138.768 40.7929C138.438 40.7929 138.176 40.7092 137.979 40.5419C137.786 40.3746 137.658 40.1188 137.594 39.7645L136.537 39.8678C136.616 40.473 136.833 40.9307 137.199 41.2456ZM135.372 41.6195V40.7142H132.366V39.2527H135.066V38.3473H132.366V37.1566H135.269V36.2463H131.28V41.6097H135.372V41.6195ZM126.344 41.6195V38.121L128.516 41.6195H129.607V36.2561H128.6V39.8383L126.398 36.2561H125.342V41.6195H126.344ZM120.263 37.5453C120.534 37.2402 120.899 37.0877 121.344 37.0877C121.793 37.0877 122.153 37.2402 122.42 37.5404C122.691 37.8405 122.825 38.3031 122.825 38.9181C122.825 39.5381 122.686 40.0056 122.405 40.3205C122.129 40.6305 121.773 40.788 121.339 40.788C120.904 40.788 120.549 40.6305 120.268 40.3205C119.986 40.0056 119.843 39.548 119.843 38.9378C119.848 38.3129 119.986 37.8553 120.263 37.5453ZM119.438 40.9799C119.912 41.467 120.549 41.7081 121.349 41.7081C122.138 41.7081 122.77 41.4621 123.244 40.9749C123.718 40.4878 123.95 39.8088 123.95 38.9427C123.95 38.0718 123.713 37.3878 123.234 36.8958C122.76 36.4037 122.124 36.1626 121.329 36.1626C120.89 36.1626 120.505 36.2315 120.169 36.3742C119.917 36.4775 119.685 36.6399 119.473 36.8564C119.261 37.0729 119.093 37.3189 118.974 37.5896C118.811 37.9586 118.728 38.4212 118.728 38.9673C118.732 39.8235 118.964 40.4927 119.438 40.9799ZM114.566 37.1615C115.011 37.1615 115.307 37.1762 115.46 37.2107C115.662 37.255 115.83 37.3386 115.963 37.4616C116.097 37.5847 116.2 37.7569 116.269 37.9832C116.338 38.2096 116.378 38.5245 116.378 38.9378C116.378 39.3511 116.343 39.6808 116.269 39.9219C116.195 40.163 116.101 40.3353 115.983 40.4386C115.865 40.5419 115.721 40.6157 115.544 40.66C115.41 40.6945 115.188 40.7092 114.887 40.7092H114.078V37.1566H114.566V37.1615ZM112.992 41.6195H115.035C115.435 41.6195 115.756 41.5802 115.998 41.5064C116.319 41.403 116.57 41.2603 116.763 41.0783C117.015 40.8372 117.202 40.5223 117.34 40.1286C117.449 39.8088 117.503 39.4299 117.503 38.987C117.503 38.4851 117.444 38.062 117.326 37.7175C117.207 37.3731 117.039 37.0828 116.812 36.8466C116.585 36.6104 116.319 36.4431 116.003 36.3545C115.766 36.2856 115.425 36.2512 114.976 36.2512H112.992V41.6195ZM108.06 41.6195V38.121L110.227 41.6195H111.318V36.2561H110.306V39.8383L108.105 36.2512H107.049V41.6146H108.06V41.6195ZM105.479 36.2512H104.393V41.6146H105.479V36.2512ZM96.9541 41.6195V40.0007L97.8377 39.1051L99.3185 41.6245H100.725L98.588 38.3473L100.617 36.2561H99.1556L96.959 38.6377V36.2561H95.8731V41.6195H96.9541ZM94.2886 36.2512H93.2026V41.6146H94.2886V36.2512ZM91.9389 41.6195V40.7142H89.2389V36.2955H88.1529V41.6146H91.9389V41.6195ZM84.1299 39.2823C84.6235 39.2823 84.9444 39.3069 85.0925 39.361C85.2406 39.4151 85.3541 39.4938 85.4331 39.607C85.5121 39.7202 85.5515 39.858 85.5515 40.0154C85.5515 40.2073 85.5022 40.3599 85.3985 40.473C85.2949 40.5862 85.1665 40.66 85.0036 40.6846C84.9 40.7043 84.6482 40.7191 84.2583 40.7191H83.2513V39.2823H84.1299ZM83.8782 37.1467C84.3915 37.1467 84.6976 37.1516 84.8062 37.1664C84.9888 37.1861 85.1221 37.2501 85.2159 37.3534C85.3097 37.4567 85.3541 37.5945 85.3541 37.7569C85.3541 37.9291 85.2998 38.0718 85.1961 38.1751C85.0875 38.2834 84.9444 38.3473 84.7568 38.367C84.6532 38.3769 84.3915 38.3867 83.967 38.3867H83.2562V37.1467H83.8782ZM82.1653 41.6195H83.9967C84.6877 41.6146 85.127 41.6048 85.3047 41.5851C85.596 41.5507 85.8378 41.467 86.0353 41.3292C86.2327 41.1915 86.3858 41.0094 86.5042 40.7781C86.6178 40.5469 86.677 40.3107 86.677 40.0646C86.677 39.7546 86.5881 39.484 86.4104 39.2577C86.2327 39.0264 85.981 38.864 85.6552 38.7705C85.8872 38.6672 86.0698 38.5097 86.2081 38.2981C86.3463 38.0866 86.4104 37.8553 86.4104 37.6043C86.4104 37.3731 86.3561 37.1615 86.2426 36.9794C86.134 36.7924 85.9958 36.6448 85.828 36.5316C85.6651 36.4185 85.4775 36.3447 85.2652 36.3102C85.0579 36.2758 84.7371 36.2561 84.3126 36.2561H82.1604V41.6195H82.1653ZM76.1975 39.115C76.1975 39.7153 76.2321 40.168 76.3012 40.478C76.3505 40.6846 76.4493 40.8815 76.6072 41.0734C76.7602 41.2603 76.9725 41.4178 77.239 41.5359C77.5056 41.654 77.8955 41.713 78.4089 41.713C78.8334 41.713 79.179 41.6589 79.4455 41.5507C79.7121 41.4424 79.9194 41.2948 80.0773 41.1127C80.2353 40.9307 80.3439 40.7043 80.4031 40.4386C80.4624 40.1729 80.492 39.7202 80.492 39.0756V36.2561H79.406V39.2232C79.406 39.6464 79.3912 39.9515 79.3567 40.1335C79.3221 40.3156 79.2283 40.4681 79.0753 40.5961C78.9173 40.724 78.6853 40.783 78.3793 40.783C78.0782 40.783 77.8363 40.7191 77.6636 40.5862C77.4908 40.4534 77.3773 40.2762 77.3328 40.0597C77.3082 39.9219 77.2933 39.6267 77.2933 39.1642V36.2561H76.2074V39.115H76.1975ZM72.2782 37.1615C72.6682 37.1615 72.9298 37.1713 73.0581 37.1959C73.2358 37.2255 73.379 37.3091 73.4925 37.4321C73.606 37.5601 73.6653 37.7224 73.6653 37.9143C73.6653 38.0718 73.6258 38.2145 73.5419 38.3326C73.4579 38.4507 73.3444 38.5393 73.2013 38.5983C73.0581 38.6524 72.7718 38.6819 72.3424 38.6819H71.75V37.1615H72.2782ZM71.755 41.6195V39.5972H72.4608C72.9544 39.5972 73.3296 39.5726 73.5863 39.5184C73.7788 39.4791 73.9664 39.3905 74.149 39.2626C74.3316 39.1346 74.4847 38.9575 74.6081 38.7361C74.7265 38.5097 74.7858 38.2342 74.7858 37.9045C74.7858 37.4764 74.6821 37.132 74.4748 36.8613C74.2675 36.5907 74.0108 36.4185 73.6998 36.3348C73.4974 36.2807 73.068 36.2561 72.4065 36.2561H70.6641V41.6195H71.755ZM69.2178 41.6195V40.7142H66.2117V39.2527H68.9117V38.3473H66.2117V37.1566H69.1141V36.2463H65.1257V41.6097H69.2178V41.6195ZM60.2586 37.1615H61.1077C61.547 37.1615 61.8135 37.1664 61.9024 37.1812C62.0801 37.2107 62.2134 37.2796 62.3121 37.3928C62.4108 37.5059 62.4552 37.6486 62.4552 37.8307C62.4552 37.9931 62.4207 38.1259 62.3466 38.2342C62.2726 38.3424 62.1739 38.4162 62.0406 38.4605C61.9123 38.5048 61.5865 38.5245 61.0632 38.5245H60.2586V37.1615ZM60.2586 41.6195V39.3807H60.4808C60.7325 39.3807 60.9151 39.4004 61.0287 39.4397C61.1422 39.4791 61.2508 39.5529 61.3545 39.6611C61.4581 39.7694 61.6506 40.0351 61.9271 40.4484L62.7119 41.6146H64.0101L63.3536 40.5665C63.092 40.1483 62.8896 39.858 62.7366 39.6956C62.5836 39.5332 62.3911 39.3807 62.1541 39.2429C62.628 39.174 62.9785 39.0116 63.2203 38.7459C63.4573 38.4851 63.5757 38.1505 63.5757 37.747C63.5757 37.4272 63.4968 37.1467 63.3388 36.9007C63.1808 36.6547 62.9735 36.4824 62.7119 36.3889C62.4503 36.2905 62.0307 36.2463 61.4581 36.2463H59.1727V41.6097H60.2586V41.6195Z" fill="#77787B"/>
</svg>
